<svg width="14" height="8" viewBox="0 0 14 8" fill="none" xmlns="http://www.w3.org/2000/svg">
<path d="M13.3186 7.92578L13.9036 7.40262C13.9328 7.37618 13.9564 7.34392 13.9729 7.30782C13.9895 7.27172 13.9986 7.23253 13.9999 7.19267C14.0011 7.15282 13.9943 7.11312 13.98 7.07603C13.9657 7.03894 13.9441 7.00524 13.9166 6.97699L7.1699 0.087184C7.1433 0.0595694 7.11159 0.037642 7.07663 0.022675C7.04167 0.00770807 7.00414 0 6.96624 0C6.92835 0 6.89083 0.00770807 6.85586 0.022675C6.8209 0.037642 6.7892 0.0595694 6.76259 0.087184L0.0852234 6.95482C0.031457 7.00905 0.00082829 7.08283 1.6553e-05 7.16007C-0.000795184 7.23731 0.0282767 7.31175 0.080891 7.36715L0.596534 7.89918C0.649532 7.95419 0.72164 7.98553 0.797132 7.98636C0.872623 7.98719 0.945373 7.95745 0.999515 7.90361L6.79725 2.03353C6.8514 1.9797 6.92414 1.94995 6.99964 1.95078C7.07513 1.95161 7.14724 1.98295 7.20023 2.03797L12.9243 7.91248C12.9758 7.96608 13.0455 7.99736 13.1189 7.99984C13.1923 8.00232 13.2638 7.9758 13.3186 7.92578Z" fill="#464646"/>
</svg>
