<svg width="20" height="20" viewBox="0 0 20 20" fill="none" xmlns="http://www.w3.org/2000/svg">
<g clip-path="url(#clip0_2_821)">
<path d="M18.4894 6.47778C18.487 8.35679 18.4771 12.8827 18.4894 17.2185C18.4919 18.3815 17.9005 18.9654 16.7154 18.9704C12.145 18.9926 7.6277 19.0025 3.1635 19C2.95308 19 2.74472 18.9584 2.55035 18.8776C2.35599 18.7968 2.17944 18.6783 2.03082 18.529C1.8822 18.3797 1.76442 18.2024 1.68423 18.0074C1.60404 17.8124 1.56302 17.6035 1.5635 17.3926L1.59313 6.52222C1.59313 6.45823 1.57042 6.39631 1.52905 6.34748C1.48768 6.29865 1.43033 6.26608 1.36721 6.25556C-0.206868 5.99259 0.252392 3.35185 0.263503 2.26296C0.266433 1.92895 0.401177 1.60962 0.638406 1.37447C0.875636 1.13932 1.19614 1.00739 1.53017 1.00741L18.7672 1C19.0918 0.999977 19.4032 1.12788 19.6341 1.35598C19.865 1.58408 19.9966 1.89399 20.0005 2.21852C20.0154 3.41852 20.5413 6.25185 18.7079 6.25926C18.5623 6.25926 18.4894 6.3321 18.4894 6.47778ZM18.7154 2.52593C18.7154 2.48172 18.6978 2.43933 18.6665 2.40807C18.6353 2.37682 18.5929 2.35926 18.5487 2.35926H1.73387C1.68967 2.35926 1.64728 2.37682 1.61602 2.40807C1.58477 2.43933 1.56721 2.48172 1.56721 2.52593V4.77778C1.56721 4.82198 1.58477 4.86437 1.61602 4.89563C1.64728 4.92689 1.68967 4.94444 1.73387 4.94444H18.5487C18.5929 4.94444 18.6353 4.92689 18.6665 4.89563C18.6978 4.86437 18.7154 4.82198 18.7154 4.77778V2.52593ZM17.1413 6.45556C17.1413 6.40349 17.1206 6.35357 17.0838 6.31675C17.047 6.27994 16.997 6.25926 16.945 6.25926H3.13017C3.07811 6.25926 3.02818 6.27994 2.99137 6.31675C2.95455 6.35357 2.93387 6.40349 2.93387 6.45556L2.91906 17.4815C2.91906 17.5335 2.93974 17.5835 2.97655 17.6203C3.01337 17.6571 3.06329 17.6778 3.11536 17.6778H16.9302C16.9822 17.6778 17.0322 17.6571 17.069 17.6203C17.1058 17.5835 17.1265 17.5335 17.1265 17.4815L17.1413 6.45556Z" fill="#FF008A"/>
<path d="M9.39376 12.7515L10.3419 13.7367C10.3859 13.7823 10.4204 13.8361 10.4434 13.895C10.4665 13.9539 10.4777 14.0167 10.4763 14.0797C10.4749 14.1428 10.461 14.2049 10.4354 14.2623C10.4098 14.3198 10.373 14.3715 10.3271 14.4144L10.2456 14.4922C9.96167 14.7589 9.68142 14.7539 9.40488 14.4774L7.14191 12.207C7.04941 12.114 6.99748 11.9882 6.99748 11.857C6.99748 11.8528 6.99754 11.8486 6.99764 11.8443C6.99754 11.8401 6.99764 11.8358 6.99764 11.8316C6.99764 11.7004 7.04957 11.5746 7.14207 11.4816L9.40504 9.21123C9.68158 8.93469 9.96183 8.92975 10.2458 9.19642L10.3273 9.27419C10.3731 9.31713 10.41 9.36883 10.4356 9.42629C10.4612 9.48375 10.4751 9.54581 10.4765 9.60888C10.4778 9.67195 10.4667 9.73476 10.4436 9.79366C10.4205 9.85256 10.386 9.90637 10.3421 9.95197L9.39393 10.9372C9.20874 11.1298 9.25072 11.226 9.51985 11.226L13.3087 11.2335C13.3703 11.2334 13.4313 11.2458 13.488 11.2698C13.5447 11.2938 13.596 11.3289 13.6388 11.3732C13.6817 11.4174 13.7152 11.4698 13.7374 11.5272C13.7596 11.5847 13.77 11.646 13.768 11.7075L13.7678 11.8443V11.9811C13.7698 12.0426 13.7594 12.104 13.7372 12.1614C13.715 12.2188 13.6815 12.2712 13.6387 12.3155C13.5958 12.3597 13.5445 12.3949 13.4878 12.4189C13.4311 12.4429 13.3702 12.4552 13.3086 12.4552L9.51969 12.4626C9.25055 12.4626 9.20858 12.5589 9.39376 12.7515Z" fill="#FF008A"/>
</g>
<defs>
<clipPath id="clip0_2_821">
<rect width="20" height="20" fill="white"/>
</clipPath>
</defs>
</svg>
