<svg width="69" height="21" viewBox="0 0 69 21" fill="none" xmlns="http://www.w3.org/2000/svg">
<path fill-rule="evenodd" clip-rule="evenodd" d="M62.8965 20.264L60.0693 17.114L57.2685 20.264H51.3759L57.1348 13.8325L51.3759 7.40109H57.453L60.3071 10.5252L63.0549 7.40109H68.9197L63.1868 13.8058L69 20.264H62.8965ZM40.053 20.264V0H51.3759V4.51719H44.8483V7.40109H51.3759V11.746H44.8483V15.735H51.3759V20.264H40.053Z" fill="#FF7A08"/>
<path fill-rule="evenodd" clip-rule="evenodd" d="M35.2787 0V8.29313H35.2244C34.1673 7.08548 32.8468 6.66598 31.3145 6.66598C28.1489 6.66598 25.7965 8.8323 24.986 11.671C24.0537 8.5408 21.6174 6.60768 17.9696 6.60768C15.0078 6.60768 12.7008 7.95648 11.4959 10.1219V7.40065H5.41882V4.51675H12.0514V0H1.52588e-05V20.264H5.41882V11.746H10.85C10.6863 12.3764 10.572 13.0352 10.572 13.7493C10.572 17.9763 13.821 20.943 17.9696 20.943C21.4586 20.943 23.7572 19.3154 24.9736 16.3491H20.3305C19.7026 17.242 19.2252 17.505 17.9692 17.505C16.5136 17.505 15.2584 16.2439 15.2584 14.7469H24.7389C25.1514 18.1016 27.7563 21 31.367 21C32.9258 21 34.3531 20.2399 35.2244 18.9529H35.2787V20.2644H40.0534V0H35.2787ZM15.4098 11.8065C15.7102 10.5191 16.7148 9.67875 17.9692 9.67875C19.351 9.67875 20.3044 10.4945 20.555 11.8065H15.4098ZM32.3791 17.1793C30.6188 17.1793 29.525 15.5487 29.525 13.8483C29.525 12.0292 30.4758 10.2802 32.3791 10.2802C34.3531 10.2802 35.138 12.0292 35.138 13.8483C35.138 15.5728 34.305 17.1793 32.3791 17.1793Z" fill="#462895"/>
</svg>
