<svg width="29" height="35" viewBox="0 0 29 35" fill="none" xmlns="http://www.w3.org/2000/svg">
<path d="M14.5 34.6278C14.7944 34.4788 22.4493 31.1284 24.8782 29.1181C27.3807 27.0334 28.7056 24.0552 28.7056 20.4814V3.72906L28.4848 3.6546C22.3757 0.304142 14.7944 0.527506 14.4264 0.527506C14.132 0.527506 6.55079 0.304142 0.441657 3.6546L0.294449 3.72906V20.5558C0.294449 24.1296 1.61932 27.1078 4.12186 29.1926C6.55079 31.2028 14.2056 34.5533 14.5 34.6278Z" fill="#341B14"/>
<path d="M14.5 35C14.5 35 6.40355 31.4262 3.90102 29.4159C1.25127 27.1823 0 24.1296 0 20.6302V3.20785C6.40355 -0.291517 14.5 0.00630094 14.5 0.00630094C14.5 0.00630094 22.5964 -0.291517 29 3.20785V20.5558C29 24.0552 27.7487 27.1078 25.099 29.3414C22.5964 31.4262 14.5 35 14.5 35ZM1.17766 20.6302C1.17766 23.9063 2.35533 26.5866 4.63706 28.448C6.69797 30.1604 12.8071 32.9153 14.5 33.6598C16.1929 32.9153 22.3756 30.086 24.3629 28.448C26.6447 26.5866 27.8223 23.8318 27.8223 20.6302V3.50567C19.2843 2.68667 9.1269 3.1334 1.17766 10.5789V20.6302Z" fill="#FFB406"/>
<path d="M22.6701 18.1729C23.7741 18.843 24.2158 19.2897 24.2894 20.1087C24.2894 21.0022 23.7005 21.5234 22.7437 21.5234C21.934 21.5234 20.9772 21.0766 20.3147 20.481V22.8636C21.1244 23.3103 22.0812 23.6826 23.1117 23.6826C25.6142 23.6826 26.7919 21.8956 26.7919 20.2576C26.8655 18.7685 26.4239 17.5773 24.2894 16.3115C23.3325 15.7159 22.5965 15.3436 22.5965 14.4502C22.5965 13.5567 23.4061 13.1844 24.0686 13.1844C24.9518 13.1844 25.835 13.7056 26.3503 14.2268V11.9932C25.9087 11.6209 24.9518 11.0997 23.5533 11.1742C21.8604 11.2486 20.0939 12.4399 20.0939 14.5246C20.1675 15.9393 20.6092 16.9816 22.6701 18.1729ZM13.9848 23.5336C14.2056 23.6081 14.5736 23.6826 15.1625 23.6826C18.033 23.6826 19.6523 21.0766 19.6523 17.3539C19.6523 13.5567 17.9594 11.2486 14.9417 11.2486C13.5432 11.2486 12.4391 11.5464 11.4823 12.1421V28.9688H13.9848V23.5336ZM13.9848 13.4078C14.2056 13.3334 14.5736 13.1844 14.868 13.1844C16.3401 13.1844 16.929 14.3757 16.929 17.2795C16.929 20.1087 16.1929 21.4489 14.7208 21.4489C14.3528 21.4489 14.0584 21.3745 13.9112 21.3V13.4078H13.9848ZM6.25637 23.6826C7.80206 23.6826 9.12693 23.3103 10.0838 22.6402V11.3975H7.50764V21.1511C7.21322 21.3745 6.84521 21.4489 6.32998 21.4489C5.15231 21.4489 5.0051 20.3321 5.0051 19.662V11.3975H2.42896V19.5131C2.42896 22.2679 3.75384 23.6826 6.25637 23.6826Z" fill="#FFB406"/>
</svg>
