<svg width="74" height="23" viewBox="0 0 74 23" fill="none" xmlns="http://www.w3.org/2000/svg">
<path d="M73.9997 0V16.421H0V0H73.9997Z" fill="#FFCC00"/>
<path d="M13.0134 2.94849L10.6492 6.17832H23.5345C24.1858 6.17832 24.1772 6.42718 23.8588 6.86083C23.5355 7.30105 22.9945 8.06664 22.6652 8.51381C22.4981 8.74075 22.1959 9.15419 23.1972 9.15419H28.4665C28.4665 9.15419 29.3158 7.99209 30.0276 7.02043C30.9962 5.69886 30.1117 2.94862 26.6491 2.94862L13.0134 2.94849Z" fill="#D2002E"/>
<path d="M9.69274 13.4709L14.4415 6.98276H20.3343C20.9856 6.98276 20.9771 7.23162 20.6588 7.66527C20.3355 8.10549 19.7855 8.86294 19.4562 9.31011C19.289 9.53705 18.987 9.95115 19.9881 9.95115H27.8827C27.2262 10.8556 25.0965 13.4708 21.2724 13.4708L9.69274 13.4709ZM36.8889 9.95036L34.3137 13.4707H27.5208C27.5208 13.4707 30.0945 9.95115 30.0967 9.95115L36.8889 9.95036ZM47.2953 9.15419H30.6803L35.2239 2.94849H42.0148L39.4105 6.50684H42.4418L45.0471 2.94849H51.8373L47.2953 9.15419ZM46.7121 9.95128L44.1358 13.4709H37.3453C37.3453 13.4709 39.9191 9.95128 39.9213 9.95128H46.7121ZM0 11.3391H10.0073L9.46066 12.0869H0V11.3391ZM0 9.95128H11.024L10.4763 10.698H0V9.95128ZM0 12.7278H8.99115L8.44711 13.4709H0V12.7278ZM74 12.0869H64.0312L64.5784 11.3393H74V12.0869ZM74 13.4709L63.0178 13.472L63.5618 12.7278H74V13.4709ZM65.5938 9.95128H74V10.6984L65.0471 10.699L65.5938 9.95128ZM61.242 2.94849L56.6992 9.15406H49.5033C49.5033 9.15406 54.0473 2.94849 54.0496 2.94849H61.242ZM48.9211 9.95128C48.9211 9.95128 48.4247 10.6334 48.1837 10.9613C47.3307 12.1205 48.0848 13.4709 50.8683 13.4709H61.7743L64.3504 9.95128H48.9211Z" fill="#D2002E"/>
<path d="M0 19.0906H74V19.4625H0V19.0906ZM0 20.8264H74V21.1983H0V20.8264ZM0 22.5618H74V22.9337H0V22.5618Z" fill="#FFCC00"/>
<path d="M24.8486 22.934H27.0757L27.4311 22.4495H25.7738L26.7032 21.1832H28.2125L28.568 20.6986H27.0587L27.8829 19.5756H29.5403L29.8959 19.0911H27.6689L24.8486 22.934ZM27.5818 22.934H28.2652L30.5947 21.3043L30.5719 22.934H31.2895L31.2949 20.9245L33.9788 19.0911H33.3295L31.1931 20.5666L31.2164 19.0911H30.533L30.5122 20.9355L27.5818 22.934ZM34.8409 19.5756H35.3251C35.6783 19.5756 36.0729 19.7518 35.7173 20.2362C35.3455 20.7426 34.7761 20.9133 34.4228 20.9133H33.859L34.8409 19.5756ZM31.8067 22.934H32.3762L33.5034 21.3979H34.0615C34.7792 21.3979 35.6905 21.0951 36.3168 20.2416C36.9593 19.3662 36.4835 19.0908 35.6691 19.0908H34.6269L31.8067 22.934ZM35.0865 22.934H35.6561L36.9086 21.2272H37.2502C37.552 21.2272 37.7402 21.2272 37.6421 21.6015L37.2737 22.934H37.9231L38.2946 21.4033C38.343 21.1667 38.3183 21.0841 38.19 21.0178L38.1981 21.0068C38.7162 20.9296 39.3173 20.5994 39.6608 20.1314C40.3355 19.2121 39.6669 19.0908 38.8808 19.0908H37.9069L35.0865 22.934ZM38.1208 19.5756H38.6675C39.1917 19.5756 39.3033 19.7959 39.0489 20.1425C38.7782 20.5116 38.2895 20.7426 37.7483 20.7426H37.2642L38.1208 19.5756ZM38.5128 22.934H40.7399L41.0952 22.4495H39.438L40.3672 21.1832H41.8766L42.2319 20.6986H40.7228L41.5469 19.5756H43.2044L43.5601 19.0911H41.3331L38.5128 22.934ZM46.3034 19.1626C46.0987 19.069 45.8175 19.0249 45.5556 19.0249C44.8379 19.0249 44.0131 19.3885 43.512 20.0711C42.6353 21.2659 44.5177 21.0291 43.8873 21.888C43.556 22.3393 42.971 22.5157 42.6465 22.5157C42.3558 22.5157 42.095 22.4054 41.958 22.3282L41.5254 22.8404C41.7268 22.9229 41.9437 23.0001 42.2228 23.0001C43.0201 23.0001 43.9135 22.6749 44.5155 21.8546C45.4447 20.5885 43.6107 20.7589 44.1523 20.0214C44.4474 19.6195 44.9041 19.5094 45.223 19.5094C45.5193 19.5094 45.6421 19.5591 45.8517 19.6691L46.3034 19.1626ZM49.1512 19.1626C48.9466 19.069 48.6655 19.0249 48.4034 19.0249C47.6858 19.0249 46.861 19.3885 46.3599 20.0711C45.4831 21.2659 47.3656 21.0291 46.7351 21.888C46.404 22.3393 45.8188 22.5157 45.4943 22.5157C45.2037 22.5157 44.9427 22.4054 44.8059 22.3282L44.3732 22.8404C44.5746 22.9229 44.7916 23.0001 45.0705 23.0001C45.8679 23.0001 46.7612 22.6749 47.3632 21.8546C48.2926 20.5885 46.4587 20.7589 47.0001 20.0214C47.2951 19.6195 47.752 19.5094 48.0708 19.5094C48.3671 19.5094 48.4902 19.5591 48.6996 19.6691L49.1512 19.1626Z" fill="#D2002E"/>
</svg>
