<svg width="20" height="20" viewBox="0 0 20 20" fill="none" xmlns="http://www.w3.org/2000/svg">
<path d="M9.03034 0.186949C9.6433 -0.0577715 10.3239 -0.0623033 10.9391 0.175619L18.4298 3.05562C19.1713 3.34112 19.649 4.07075 19.6129 4.86836L19.4327 9.07846C19.2862 12.4751 17.578 15.6111 14.8084 17.5598L12.4106 19.2457C10.9819 20.2518 9.07992 20.2518 7.64892 19.2457L5.28271 17.5802C2.51537 15.6338 0.827467 12.4864 0.732818 9.09206L0.615635 4.8593C0.593099 4.07982 1.05958 3.37058 1.78071 3.08054L9.03034 0.186949ZM10.4456 1.474C10.1549 1.36297 9.8326 1.36523 9.54189 1.4808L2.29001 4.37439C2.10973 4.4469 1.99255 4.62364 1.99931 4.81851L2.11874 9.05353C2.20212 12.006 3.66918 14.7478 6.07595 16.4405L8.44217 18.1037C9.39541 18.7744 10.6642 18.7744 11.6174 18.1037L14.0129 16.4178C16.431 14.7184 17.9228 11.9811 18.0512 9.01955L18.2315 4.80945C18.2405 4.61005 18.1211 4.42651 17.9341 4.354L10.4456 1.474ZM14.3419 7.30197C14.6101 7.57615 14.6056 8.01801 14.3329 8.28765L9.91598 12.6473C9.65457 12.9056 9.23766 12.9147 8.96499 12.6677L6.4275 10.3632C6.14356 10.1049 6.12102 9.66534 6.37793 9.37983C6.63483 9.09432 7.07202 9.07166 7.35596 9.32998L9.40893 11.1948L13.3616 7.29291C13.6343 7.02326 14.0738 7.02779 14.3419 7.30197Z" fill="#FF008A"/>
</svg>
