<svg width="20" height="15" viewBox="0 0 20 15" fill="none" xmlns="http://www.w3.org/2000/svg">
<path d="M13.2259 0.33374C14.4075 0.33374 15.3743 1.24976 15.4564 2.40991L15.4622 2.57007L15.4603 2.83569L18.1556 3.92749C18.9466 4.2478 19.4818 4.98804 19.5462 5.82983L19.5521 5.99976V9.88452C19.5521 10.9626 18.7884 11.863 17.7728 12.074C17.7747 12.0818 17.7747 12.0916 17.7747 12.1013C17.7747 13.3455 16.7747 14.3572 15.5384 14.3572C14.3079 14.3572 13.3138 13.3572 13.3021 12.1228L8.1302 12.1208L8.12825 12.2556C8.05012 13.4275 7.08137 14.3572 5.89583 14.3572C4.6595 14.3572 3.6595 13.3455 3.6595 12.1013C2.64387 11.9333 1.85481 11.0876 1.78255 10.0447L1.77669 9.88452V9.04468C1.77669 8.71265 2.04622 8.44507 2.3763 8.44312C2.67512 8.44312 2.92122 8.65991 2.96809 8.94702L2.97591 9.04468V9.88452C2.97591 10.4177 3.3802 10.8591 3.89973 10.9158L4.01302 10.9216H14.2611V2.57007C14.2611 2.03687 13.8568 1.59546 13.3372 1.53882L13.2259 1.53296H4.01302C3.47981 1.53296 3.03841 1.93726 2.98177 2.45679L2.97591 2.57007V3.46851H6.46809C6.76692 3.46851 7.01301 3.6853 7.05989 3.97241L7.0677 4.07007C7.0677 4.3689 6.85091 4.61499 6.5638 4.66187L6.46809 4.66968H2.3763C2.07747 4.66968 1.83137 4.45288 1.7845 4.16577L1.77669 4.07007V2.57007C1.77669 1.38843 2.6927 0.421631 3.85286 0.339599L4.01302 0.33374H13.2259ZM16.5736 12.1228L14.5013 12.1208L14.5072 12.2166C14.5638 12.7459 15.0052 13.158 15.5384 13.158C16.1029 13.158 16.5638 12.699 16.5736 12.1228ZM6.93294 12.1228L4.86067 12.1208L4.86653 12.2166C4.92317 12.7459 5.36458 13.158 5.89583 13.158C6.46028 13.158 6.92122 12.699 6.93294 12.1228ZM15.4603 4.13062V10.9216H17.3158C17.849 10.9216 18.2904 10.5173 18.345 9.9978L18.3529 9.88452V5.99976C18.3529 5.57788 18.097 5.19702 17.7044 5.03882L15.4603 4.13062ZM3.03645 5.95288C3.36848 5.95288 3.63606 6.22241 3.63606 6.55249C3.63606 6.85132 3.41927 7.09741 3.13411 7.14624L3.03645 7.15405H0.595047C0.263016 7.15405 -0.00456238 6.88452 -0.00456238 6.55249C-0.00456238 6.25366 0.212234 6.00757 0.499344 5.96069L0.595047 5.95288H3.03645Z" fill="#FF008A"/>
</svg>
